# File created by Blade
# Date/Time:  Thu Sep 25 19:36:54 2014
# Frame Rate: 120.000 fps
#------------------------------------------------------
:FULLY-SPECIFIED
:DEGREES
295
root 0.945188 33.469362 3.174855 26.778360 -0.895602 -13.589134
Spine -22.583215 1.342949 15.183636
Head -4.251332 -0.737188 5.317238
LeftShoulder -9.612269 22.912733 13.630956
LeftArm 24.915175 6.264571 -54.184661
LeftForeArm 7.537132 0.000000 23.887752
LeftHand -23.520747 0.000000 -6.192583
LeftHandThumb1 -26.253704 0.000000 33.147579
RightShoulder -19.759401 -1.992203 -23.043237
RightArm -38.577877 -25.665007 82.736777
RightForeArm -7.769147 -0.000000 10.435801
RightHand -2.405249 0.000000 30.055095
RightHandThumb1 -24.326973 -0.000000 -32.862282
LeftUpLeg -21.431860 9.052773 4.262056
LeftLeg 2.926235 -0.000000 -0.000000
LeftFoot -12.045306 1.991183 -15.938698
LeftToeBase 10.288462 -0.000000 -0.000000
RightUpLeg 2.815194 11.492293 -27.777565
RightLeg 130.872776 -0.000000 -0.000000
RightFoot 25.323506 -1.599320 9.396639
RightToeBase 1.526116 -0.000000 -0.000000
296
root 0.918416 33.474550 3.179463 26.985557 -0.915618 -13.704157
Spine -22.699036 1.332129 15.093759
Head -4.258906 -0.669861 5.460997
LeftShoulder -9.614104 22.799916 13.577126
LeftArm 25.036541 6.626481 -53.803591
LeftForeArm 7.166989 -0.000000 23.797543
LeftHand -23.292573 0.000000 -5.838819
LeftHandThumb1 -26.253704 0.000000 33.147579
RightShoulder -19.762134 -2.066900 -23.034807
RightArm -38.591593 -25.726329 82.696482
RightForeArm -7.660606 -0.000000 10.458691
RightHand -2.591022 -0.000000 30.166751
RightHandThumb1 -24.326973 -0.000000 -32.862282
LeftUpLeg -21.602441 9.136140 4.353607
LeftLeg 2.869956 -0.000000 -0.000000
LeftFoot -12.046126 2.158629 -15.761004
LeftToeBase 10.175413 -0.000000 -0.000000
RightUpLeg 3.092234 11.619271 -27.538519
RightLeg 130.668822 -0.000000 -0.000000
RightFoot 25.032244 -1.930105 9.166097
RightToeBase 1.924862 -0.000000 -0.000000
297
root 0.890739 33.479256 3.182425 27.186837 -0.905811 -13.809150
Spine -22.806526 1.283068 15.017002
Head -4.234244 -0.589858 5.596096
LeftShoulder -9.550715 22.564967 13.623953
LeftArm 25.025884 6.743588 -53.751613
LeftForeArm 7.442537 -0.000000 23.627665
LeftHand -23.109330 -0.000000 -6.285997
LeftHandThumb1 -26.253704 0.000000 33.147579
RightShoulder -19.732091 -2.068243 -23.053147
RightArm -38.691685 -25.745470 82.720282
RightForeArm -7.746854 -0.000000 10.451180
RightHand -2.693004 0.000000 30.145797
RightHandThumb1 -24.326973 -0.000000 -32.862282
LeftUpLeg -21.785692 9.158045 4.468460
LeftLeg 2.836247 -0.000000 -0.000000
LeftFoot -12.118419 2.327910 -15.888719
LeftToeBase 10.449170 -0.000000 -0.000000
RightUpLeg 3.380775 11.708687 -27.317928
RightLeg 130.488472 -0.000000 -0.000000
RightFoot 24.783149 -2.154470 8.885588
RightToeBase 2.180546 -0.000000 -0.000000
298
root 0.865483 33.482605 3.183173 27.383198 -0.933999 -13.907669
Spine -22.873083 1.274781 14.920950
Head -4.281578 -0.478523 5.723789
LeftShoulder -9.534259 22.417264 13.537281
LeftArm 25.173714 7.011469 -53.381504
LeftForeArm 7.020189 -0.000000 23.412540
LeftHand -22.907526 -0.000000 -5.906185
LeftHandThumb1 -26.253704 0.000000 33.147579
RightShoulder -19.745637 -2.098455 -23.077399
RightArm -38.703276 -25.786353 82.752351
RightForeArm -7.855745 0.000000 10.362557
RightHand -2.835884 -0.000000 30.015362
RightHandThumb1 -24.326973 -0.000000 -32.862282
LeftUpLeg -21.959743 9.218454 4.544311
LeftLeg 2.801902 -0.000000 -0.000000
LeftFoot -12.130338 2.512860 -15.743083
LeftToeBase 10.301540 -0.000000 -0.000000
RightUpLeg 3.652826 11.853264 -27.127464
RightLeg 130.313094 -0.000000 -0.000000
RightFoot 24.637429 -2.377923 8.771799
RightToeBase 2.272421 -0.000000 -0.000000
299
root 0.837744 33.487528 3.180712 27.596794 -0.954536 -14.022048
Spine -22.947862 1.270996 14.837895
Head -4.337305 -0.426214 5.895519
LeftShoulder -9.470609 22.334376 13.565714
LeftArm 25.369955 7.047837 -53.304261
LeftForeArm 6.987331 -0.000000 23.145481
LeftHand -22.943479 -0.000000 -6.141027
LeftHandThumb1 -26.253704 0.000000 33.147579
RightShoulder -19.717045 -2.068600 -23.088542
RightArm -38.812770 -25.682879 82.748396
RightForeArm -8.337659 -0.000000 10.278485
RightHand -2.606844 0.000000 29.746184
RightHandThumb1 -24.326973 -0.000000 -32.862282
LeftUpLeg -22.160143 9.260111 4.649211
LeftLeg 2.779809 -0.000000 -0.000000
LeftFoot -12.121038 2.722221 -15.509607
LeftToeBase 10.151096 -0.000000 -0.000000
RightUpLeg 3.893973 11.987786 -26.914114
RightLeg 130.171246 -0.000000 -0.000000
RightFoot 24.546553 -2.511728 8.600390
RightToeBase 2.487600 -0.000000 -0.000000
300
root 0.811525 33.491846 3.176128 27.820060 -0.976815 -14.144780
Spine -23.014930 1.289545 14.791592
Head -4.395754 -0.330058 5.999493
LeftShoulder -9.409988 22.232776 13.541072
LeftArm 25.518525 7.224574 -53.103401
LeftForeArm 7.114204 -0.000000 22.909329
LeftHand -22.634087 0.000000 -7.074944
LeftHandThumb1 -26.253704 0.000000 33.147579
RightShoulder -19.755807 -2.123460 -23.154480
RightArm -38.756743 -25.621159 82.717574
RightForeArm -8.477432 -0.000000 10.209511
RightHand -2.717142 -0.000000 29.784477
RightHandThumb1 -24.326973 -0.000000 -32.862282
LeftUpLeg -22.365453 9.275429 4.768603
LeftLeg 2.745588 -0.000000 -0.000000
LeftFoot -12.094997 2.953318 -15.272054
LeftToeBase 9.907778 -0.000000 -0.000000
RightUpLeg 4.107670 12.128794 -26.701541
RightLeg 130.034443 -0.000000 -0.000000
RightFoot 24.560861 -2.633919 8.518520
RightToeBase 2.767527 -0.000000 -0.000000
301
root 0.792605 33.492437 3.172061 28.039377 -1.005311 -14.176980
Spine -23.091976 1.257534 14.647998
Head -4.461337 -0.236905 6.133849
LeftShoulder -9.322570 22.146825 13.514047
LeftArm 25.633259 7.561737 -52.743631
LeftForeArm 6.853773 -0.000000 22.762010
LeftHand -22.551987 -0.000000 -7.351008
LeftHandThumb1 -26.253704 0.000000 33.147579
RightShoulder -19.786506 -2.117750 -23.236087
RightArm -38.780889 -25.597755 82.760607
RightForeArm -8.527489 -0.000000 10.153955
RightHand -2.999110 0.000000 29.821834
RightHandThumb1 -24.326973 -0.000000 -32.862282
LeftUpLeg -22.562118 9.206013 4.792851
LeftLeg 2.704280 -0.000000 -0.000000
LeftFoot -12.062720 3.309835 -14.960100
LeftToeBase 9.486874 -0.000000 -0.000000
RightUpLeg 4.365933 12.177121 -26.580407
RightLeg 129.874712 -0.000000 -0.000000
RightFoot 24.532379 -3.050460 8.632899
RightToeBase 3.436529 -0.000000 -0.000000
302
root 0.760594 33.495451 3.163748 28.292420 -1.029982 -14.308185
Spine -23.153385 1.307072 14.571434
Head -4.629868 -0.157504 6.314300
LeftShoulder -9.200957 21.957023 13.496067
LeftArm 25.704784 7.909682 -52.363120
LeftForeArm 6.388875 -0.000000 22.546967
LeftHand -22.467987 0.000000 -6.542563
LeftHandThumb1 -26.253704 0.000000 33.147579
RightShoulder -19.879829 -2.123640 -23.313366
RightArm -38.779217 -25.512922 82.777319
RightForeArm -8.660567 0.000000 10.104160
RightHand -3.227720 -0.000000 29.697718
RightHandThumb1 -24.326973 -0.000000 -32.862282
LeftUpLeg -22.795260 9.204984 4.932486
LeftLeg 2.648681 -0.000000 -0.000000
LeftFoot -12.009802 3.579969 -14.504607
LeftToeBase 9.243341 -0.000000 -0.000000
RightUpLeg 4.530143 12.323807 -26.358483
RightLeg 129.759980 -0.000000 -0.000000
RightFoot 24.851139 -2.979202 8.616402
RightToeBase 3.464580 -0.000000 -0.000000
303
root 0.733780 33.493096 3.158163 28.486056 -1.062934 -14.407049
Spine -23.146571 1.309613 14.489310
Head -4.810012 -0.041965 6.450524
LeftShoulder -9.047535 21.856826 13.552162
LeftArm 25.839720 7.685683 -52.450962
LeftForeArm 6.922085 -0.000000 22.144879
LeftHand -22.186799 -0.000000 -7.178319
LeftHandThumb1 -26.253704 0.000000 33.147579
RightShoulder -19.966682 -2.132339 -23.419522
RightArm -38.724131 -25.420030 82.763856
RightForeArm -8.922937 -0.000000 10.058535
RightHand -3.391167 -0.000000 29.697772
RightHandThumb1 -24.326973 -0.000000 -32.862282
LeftUpLeg -22.968077 9.150861 5.031602
LeftLeg 2.609135 -0.000000 -0.000000
LeftFoot -11.985894 3.980008 -13.905987
LeftToeBase 8.846876 -0.000000 -0.000000
RightUpLeg 4.767432 12.503479 -26.162398
RightLeg 129.617470 -0.000000 -0.000000
RightFoot 25.204219 -3.029275 8.880071
RightToeBase 3.424972 -0.000000 -0.000000
304
root 0.710115 33.490532 3.150760 28.720645 -1.146126 -14.510146
Spine -23.165903 1.292692 14.421823
Head -4.989210 0.166734 6.607747
LeftShoulder -8.991632 21.790412 13.530667
LeftArm 25.938851 7.899531 -52.194829
LeftForeArm 6.714806 -0.000000 21.973957
LeftHand -22.218827 -0.000000 -7.153565
LeftHandThumb1 -26.253704 0.000000 33.147579
RightShoulder -19.959667 -2.176212 -23.486465
RightArm -38.638000 -25.303675 82.708901
RightForeArm -9.133766 -0.000000 10.039468
RightHand -3.535786 0.000000 29.653559
RightHandThumb1 -24.326973 -0.000000 -32.862282
LeftUpLeg -23.148897 9.023501 5.133033
LeftLeg 2.531948 -0.000000 -0.000000
LeftFoot -11.981430 4.507303 -13.448054
LeftToeBase 8.489102 -0.000000 -0.000000
RightUpLeg 4.924155 12.663867 -26.021916
RightLeg 129.490111 -0.000000 -0.000000
RightFoot 25.572446 -3.128908 9.032182
RightToeBase 3.630374 -0.000000 -0.000000
305
root 0.694065 33.484365 3.137569 28.969277 -1.220541 -14.567316
Spine -23.183828 1.284366 14.337771
Head -5.225292 0.404714 6.723865
LeftShoulder -8.919505 21.688425 13.494970
LeftArm 26.065953 8.303499 -51.793587
LeftForeArm 6.467357 -0.000000 21.774928
LeftHand -22.321521 0.000000 -7.202676
LeftHandThumb1 -26.253704 0.000000 33.147579
RightShoulder -19.956741 -2.087732 -23.620596
RightArm -38.721589 -25.141761 82.693091
RightForeArm -9.443957 -0.000000 10.020540
RightHand -3.565352 0.000000 29.659693
RightHandThumb1 -24.326973 -0.000000 -32.862282
LeftUpLeg -23.370475 8.806555 5.208147
LeftLeg 2.476262 -0.000000 -0.000000
LeftFoot -11.990492 5.101990 -12.805873
LeftToeBase 8.212162 -0.000000 -0.000000
RightUpLeg 5.098191 12.881502 -25.927491
RightLeg 129.361136 -0.000000 -0.000000
RightFoot 25.974557 -3.144070 9.403867
RightToeBase 3.464748 -0.000000 -0.000000
306
root 0.675489 33.479822 3.117962 29.273441 -1.326624 -14.706239
Spine -23.219098 1.392993 14.325788
Head -5.513504 0.525593 6.753008
LeftShoulder -8.808958 21.511086 13.476685
LeftArm 26.143049 8.710998 -51.438195
LeftForeArm 6.095644 -0.000000 21.529289
LeftHand -22.144886 -0.000000 -7.096156
LeftHandThumb1 -26.253704 0.000000 33.147579
RightShoulder -19.984389 -2.073132 -23.762883
RightArm -38.774124 -24.994081 82.680706
RightForeArm -9.628499 -0.000000 10.039944
RightHand -3.578362 -0.000000 29.647585
RightHandThumb1 -24.326973 -0.000000 -32.862282
LeftUpLeg -23.661164 8.642402 5.340571
LeftLeg 2.475611 -0.000000 -0.000000
LeftFoot -12.083021 5.761532 -12.290916
LeftToeBase 7.817539 -0.000000 -0.000000
RightUpLeg 5.143597 13.078680 -25.805170
RightLeg 129.287915 -0.000000 -0.000000
RightFoot 26.247650 -3.297182 9.770555
RightToeBase 3.487068 -0.000000 -0.000000
